<svg width="1153" height="1213" viewBox="0 0 1153 1213" fill="none" xmlns="http://www.w3.org/2000/svg">
<path d="M576.5 265.566L577.237 395.782C577.607 461.019 660.921 488.09 699.566 435.529L776.7 330.615L700.758 436.395C662.711 489.39 714.202 560.262 776.361 540.454L900.431 500.916L776.816 541.855C714.886 562.366 714.886 649.968 776.816 670.479L900.43 711.418L776.361 671.881C714.202 652.072 662.711 722.944 700.758 775.939L776.699 881.717L699.566 776.805C660.921 724.244 577.606 751.315 577.237 816.552L576.5 946.768L575.763 816.552C575.394 751.315 492.079 724.244 453.435 776.806L376.299 881.721L452.243 775.939C490.29 722.944 438.798 652.072 376.64 671.881L252.57 711.418L376.184 670.479C438.115 649.968 438.115 562.366 376.184 541.855L252.57 500.916L376.64 540.454C438.798 560.262 490.29 489.39 452.243 436.395L376.299 330.614L453.435 435.529C492.079 488.09 575.394 461.019 575.763 395.782L576.5 265.566Z" stroke="url(#paint0_diamond_486_5)"/>
<path d="M401.73 662.954L449.482 647.139C488.936 634.072 488.936 578.263 449.482 565.197L401.73 549.382L449.658 564.655C489.258 577.274 522.061 532.124 497.823 498.362L468.486 457.499L498.283 498.028C522.903 531.513 575.98 514.267 576.215 472.706L576.5 422.403L576.785 472.706C577.02 514.267 630.098 531.513 654.717 498.027L684.515 457.498L655.177 498.362C630.939 532.124 663.742 577.274 703.342 564.655L751.271 549.381L703.518 565.197C664.064 578.263 664.064 634.072 703.518 647.139L751.269 662.954L703.342 647.681C663.742 635.061 630.939 680.212 655.177 713.974L684.513 754.835L654.717 714.308C630.098 680.823 577.02 698.069 576.785 739.63L576.5 789.933L576.215 739.63C575.98 698.069 522.903 680.823 498.283 714.308L468.486 754.837L497.823 713.974C522.061 680.212 489.258 635.061 449.658 647.681L401.73 662.954Z" stroke="url(#paint1_diamond_486_5)"/>
<path d="M576.5 520.965L576.5 521.048C576.651 547.729 610.726 558.801 626.532 537.304L626.58 537.238L626.533 537.304C610.972 558.979 632.031 587.965 657.454 579.864L657.531 579.839L657.454 579.865C632.125 588.253 632.125 624.082 657.454 632.471L657.531 632.497L657.454 632.472C632.031 624.37 610.972 653.357 626.533 675.031L626.58 675.097L626.532 675.032C610.726 653.535 576.651 664.607 576.5 691.288L576.5 691.37L576.499 691.288C576.348 664.606 542.273 653.535 526.468 675.032L526.418 675.099L526.467 675.031C542.028 653.357 520.968 624.37 495.545 632.472L495.469 632.496L495.545 632.471C520.874 624.082 520.874 588.253 495.545 579.865L495.468 579.839L495.546 579.864C520.968 587.965 542.028 558.979 526.467 537.304L526.419 537.238L526.468 537.304C542.273 558.801 576.348 547.729 576.499 521.048L576.5 520.965Z" stroke="url(#paint2_diamond_486_5)"/>
<path d="M576.5 559.406C578.527 572.307 594.762 577.582 603.986 568.337C598.043 579.966 608.076 593.776 620.973 591.718C609.329 597.633 609.329 614.703 620.973 620.618C608.076 618.56 598.043 632.37 603.986 643.999C594.762 634.754 578.527 640.029 576.5 652.93C574.472 640.029 558.237 634.754 549.013 643.999C554.956 632.37 544.923 618.56 532.026 620.618C543.67 614.703 543.67 597.633 532.026 591.718C544.923 593.776 554.956 579.966 549.013 568.337C558.237 577.582 574.472 572.307 576.5 559.406Z" stroke="url(#paint3_diamond_486_5)"/>
<path d="M576.5 265.567L577.237 395.782C577.607 461.02 660.921 488.09 699.566 435.529L776.7 330.616L700.758 436.396C662.711 489.391 714.202 560.262 776.361 540.454L900.431 500.916L776.816 541.856C714.886 562.366 714.886 649.969 776.816 670.479L900.43 711.419L776.361 671.881C714.202 652.073 662.711 722.945 700.758 775.94L776.699 881.718L699.566 776.806C660.921 724.245 577.606 751.315 577.237 816.553L576.5 946.768L575.763 816.553C575.394 751.315 492.079 724.245 453.435 776.806L376.299 881.722L452.243 775.94C490.29 722.944 438.798 652.073 376.64 671.881L252.57 711.419L376.184 670.479C438.115 649.969 438.115 562.366 376.184 541.856L252.57 500.916L376.64 540.454C438.798 560.262 490.29 489.391 452.243 436.395L376.299 330.615L453.435 435.529C492.079 488.09 575.394 461.02 575.763 395.782L576.5 265.567Z" stroke="url(#paint4_diamond_486_5)"/>
<path d="M576.5 88.3541L577.748 308.866C578.269 400.855 695.749 439.027 750.241 364.912L880.863 187.248L752.26 366.379C698.61 441.106 771.217 541.041 858.866 513.11L1068.97 446.155L859.637 515.483C772.31 544.405 772.31 667.931 859.637 696.853L1068.97 766.181L858.866 699.226C771.217 671.295 698.611 771.23 752.26 845.957L880.863 1025.09L750.24 847.424C695.749 773.309 578.269 811.481 577.748 903.471L576.5 1123.98L575.252 903.47C574.732 811.481 457.251 773.309 402.76 847.424L272.136 1025.09L400.74 845.957C454.39 771.23 381.783 671.295 294.134 699.226L84.0302 766.181L293.363 696.853C380.69 667.931 380.69 544.405 293.363 515.483L84.0307 446.155L294.134 513.11C381.783 541.041 454.389 441.106 400.74 366.379L272.136 187.247L402.76 364.912C457.251 439.027 574.732 400.855 575.252 308.865L576.5 88.3541Z" stroke="url(#paint5_diamond_486_5)"/>
<path d="M401.73 662.954L449.482 647.139C488.936 634.072 488.936 578.263 449.482 565.197L401.73 549.382L449.658 564.655C489.258 577.274 522.061 532.124 497.823 498.362L468.486 457.499L498.283 498.028C522.903 531.513 575.98 514.267 576.215 472.706L576.5 422.403L576.785 472.706C577.02 514.267 630.097 531.513 654.717 498.027L684.515 457.498L655.177 498.362C630.939 532.124 663.742 577.274 703.342 564.655L751.27 549.381L703.518 565.197C664.064 578.263 664.064 634.072 703.518 647.139L751.269 662.954L703.342 647.681C663.742 635.061 630.939 680.212 655.177 713.974L684.513 754.835L654.717 714.308C630.097 680.823 577.02 698.069 576.785 739.63L576.5 789.933L576.215 739.63C575.98 698.069 522.902 680.823 498.283 714.308L468.486 754.837L497.823 713.974C522.061 680.212 489.258 635.061 449.658 647.681L401.73 662.954Z" stroke="url(#paint6_diamond_486_5)"/>
<path d="M576.5 520.966L576.5 521.048C576.651 547.73 610.726 558.801 626.532 537.304L626.58 537.238L626.533 537.305C610.972 558.979 632.031 587.966 657.454 579.864L657.531 579.839L657.454 579.865C632.125 588.254 632.125 624.083 657.454 632.471L657.531 632.497L657.454 632.472C632.031 624.371 610.972 653.357 626.533 675.032L626.58 675.097L626.532 675.032C610.726 653.535 576.651 664.607 576.5 691.289L576.5 691.371L576.499 691.288C576.348 664.607 542.273 653.535 526.468 675.032L526.418 675.099L526.467 675.032C542.028 653.357 520.968 624.371 495.545 632.472L495.469 632.497L495.545 632.471C520.874 624.083 520.874 588.254 495.545 579.865L495.468 579.839L495.546 579.864C520.968 587.966 542.028 558.979 526.467 537.305L526.419 537.239L526.468 537.304C542.273 558.801 576.348 547.73 576.499 521.048L576.5 520.966Z" stroke="url(#paint7_diamond_486_5)"/>
<path d="M576.5 559.406C578.527 572.307 594.762 577.582 603.986 568.337C598.043 579.966 608.076 593.776 620.973 591.718C609.33 597.633 609.33 614.703 620.973 620.618C608.077 618.56 598.043 632.37 603.986 643.999C594.762 634.754 578.527 640.029 576.5 652.93C574.472 640.029 558.237 634.754 549.014 643.999C554.957 632.37 544.923 618.56 532.026 620.618C543.67 614.703 543.67 597.633 532.026 591.718C544.923 593.776 554.957 579.966 549.014 568.337C558.237 577.582 574.472 572.307 576.5 559.406Z" stroke="url(#paint8_diamond_486_5)"/>
<defs>
<radialGradient id="paint0_diamond_486_5" cx="0" cy="0" r="1" gradientUnits="userSpaceOnUse" gradientTransform="translate(576.5 606.167) rotate(90) scale(428.955 407.96)">
<stop offset="0.255208" stop-color="#FF0000"/>
<stop offset="0.541667" stop-color="#EEF150"/>
<stop offset="0.791667" stop-color="#00FFF0"/>
</radialGradient>
<radialGradient id="paint1_diamond_486_5" cx="0" cy="0" r="1" gradientUnits="userSpaceOnUse" gradientTransform="translate(576.5 606.168) rotate(90) scale(272.118 258.799)">
<stop offset="0.255208" stop-color="#FF0000"/>
<stop offset="0.541667" stop-color="#EEF150"/>
<stop offset="0.791667" stop-color="#00FFF0"/>
</radialGradient>
<radialGradient id="paint2_diamond_486_5" cx="0" cy="0" r="1" gradientUnits="userSpaceOnUse" gradientTransform="translate(576.5 606.168) rotate(90) scale(173.555 165.061)">
<stop offset="0.255208" stop-color="#FF0000"/>
<stop offset="0.541667" stop-color="#EEF150"/>
<stop offset="0.791667" stop-color="#00FFF0"/>
</radialGradient>
<radialGradient id="paint3_diamond_486_5" cx="0" cy="0" r="1" gradientUnits="userSpaceOnUse" gradientTransform="translate(576.5 606.168) rotate(90) scale(100.705 95.7763)">
<stop offset="0.255208" stop-color="#FF0000"/>
<stop offset="0.541667" stop-color="#EEF150"/>
<stop offset="0.791667" stop-color="#00FFF0"/>
</radialGradient>
<radialGradient id="paint4_diamond_486_5" cx="0" cy="0" r="1" gradientUnits="userSpaceOnUse" gradientTransform="translate(576.5 606.168) rotate(90) scale(428.955 407.96)">
<stop offset="0.338542" stop-color="#FF0000"/>
<stop offset="0.802083"/>
<stop offset="1" stop-color="white"/>
</radialGradient>
<radialGradient id="paint5_diamond_486_5" cx="0" cy="0" r="1" gradientUnits="userSpaceOnUse" gradientTransform="translate(576.5 606.168) rotate(90) scale(606.168 576.5)">
<stop offset="0.338542" stop-color="#FF0000"/>
<stop offset="0.802083"/>
<stop offset="1" stop-color="white"/>
</radialGradient>
<radialGradient id="paint6_diamond_486_5" cx="0" cy="0" r="1" gradientUnits="userSpaceOnUse" gradientTransform="translate(576.5 606.168) rotate(90) scale(272.118 258.799)">
<stop offset="0.338542" stop-color="#FF0000"/>
<stop offset="0.802083"/>
<stop offset="1" stop-color="white"/>
</radialGradient>
<radialGradient id="paint7_diamond_486_5" cx="0" cy="0" r="1" gradientUnits="userSpaceOnUse" gradientTransform="translate(576.5 606.168) rotate(90) scale(173.555 165.061)">
<stop offset="0.338542" stop-color="#FF0000"/>
<stop offset="0.802083"/>
<stop offset="1" stop-color="white"/>
</radialGradient>
<radialGradient id="paint8_diamond_486_5" cx="0" cy="0" r="1" gradientUnits="userSpaceOnUse" gradientTransform="translate(576.5 606.168) rotate(90) scale(100.705 95.7763)">
<stop offset="0.338542" stop-color="#FF0000"/>
<stop offset="0.802083"/>
<stop offset="1" stop-color="white"/>
</radialGradient>
</defs>
</svg>
